<?xml version="1.0" standalone="no"?>
<!DOCTYPE svg PUBLIC "-//W3C//DTD SVG 20010904//EN"
 "http://www.w3.org/TR/2001/REC-SVG-20010904/DTD/svg10.dtd">
<svg version="1.0" xmlns="http://www.w3.org/2000/svg"
 width="200.000000pt" height="200.000000pt" viewBox="0 0 200.000000 200.000000"
 preserveAspectRatio="xMidYMid meet">

<g transform="translate(0.000000,200.000000) scale(0.100000,-0.100000)"
fill="#000000" stroke="none">
<path d="M951 1974 l-31 -26 0 -113 c0 -140 -5 -147 -81 -105 -66 36 -93 37
-124 5 -52 -51 -29 -94 87 -161 46 -26 88 -54 95 -63 7 -9 13 -47 13 -88 0
-86 -2 -87 -89 -43 -32 16 -61 26 -65 23 -3 -4 -6 -34 -6 -68 0 -85 -11 -92
-79 -54 -31 17 -62 38 -68 47 -9 10 -13 52 -13 119 0 140 -17 173 -89 173 -44
0 -61 -28 -61 -96 0 -34 -6 -68 -13 -78 -12 -17 -20 -14 -113 38 -106 60 -120
64 -163 41 -32 -16 -41 -33 -41 -74 0 -42 20 -61 121 -115 51 -28 94 -56 96
-63 3 -7 -21 -26 -52 -44 -30 -17 -60 -39 -65 -49 -16 -31 -11 -76 10 -95 35
-32 78 -24 172 33 47 29 94 52 103 52 29 0 135 -63 135 -80 0 -9 -25 -31 -55
-49 -30 -18 -55 -37 -55 -42 0 -8 28 -28 109 -76 l34 -21 -65 -36 c-36 -20
-78 -36 -94 -36 -16 0 -66 22 -114 50 -47 28 -97 50 -111 50 -36 0 -79 -42
-79 -77 0 -41 21 -65 79 -93 34 -15 51 -29 49 -39 -2 -9 -46 -39 -97 -67 -104
-57 -121 -74 -121 -117 0 -42 16 -64 55 -77 43 -14 52 -11 165 52 51 28 95 47
100 42 4 -5 10 -40 12 -78 3 -57 8 -72 27 -87 32 -26 67 -24 96 6 23 22 25 31
25 127 0 62 5 113 13 127 14 28 115 91 134 84 9 -4 13 -27 13 -73 0 -38 5 -72
11 -75 5 -4 35 9 64 29 80 53 85 50 85 -36 0 -42 -6 -80 -13 -89 -7 -9 -49
-37 -95 -63 -116 -67 -139 -110 -87 -161 32 -33 57 -31 123 6 76 43 82 35 82
-106 l0 -113 31 -26 c38 -33 60 -33 98 0 l31 26 0 113 c0 140 5 147 81 105 68
-37 101 -38 128 -4 45 58 23 94 -98 163 -49 28 -92 58 -95 67 -3 9 -6 47 -6
85 0 81 5 84 78 39 27 -17 54 -30 61 -30 7 0 11 20 11 54 0 62 7 86 24 86 22
0 126 -61 136 -80 6 -10 10 -66 10 -125 0 -99 2 -107 25 -130 25 -26 63 -32
95 -15 24 13 40 62 40 121 0 61 9 62 100 9 97 -56 116 -63 157 -49 39 12 53
34 53 82 0 41 -14 54 -118 117 -42 25 -78 54 -80 63 -2 11 13 24 48 42 28 14
56 36 62 50 21 46 -18 115 -64 115 -13 0 -63 -23 -112 -50 -49 -28 -99 -50
-113 -50 -27 0 -143 56 -143 69 0 11 35 39 79 63 42 23 39 41 -12 71 -51 30
-68 49 -59 64 13 20 113 75 137 75 12 0 62 -23 110 -51 99 -58 144 -66 169
-29 9 12 16 37 16 55 0 27 -7 38 -41 63 -23 16 -50 32 -60 35 -43 14 -20 42
80 99 54 31 102 63 105 72 22 57 -18 124 -74 124 -15 0 -68 -22 -119 -50 -51
-27 -99 -50 -107 -50 -10 0 -14 13 -14 54 0 78 -15 113 -54 126 -39 13 -80 1
-95 -29 -6 -11 -11 -71 -11 -133 -1 -73 -5 -119 -13 -129 -7 -9 -38 -31 -70
-49 -75 -42 -87 -34 -87 61 0 45 -4 69 -11 69 -7 0 -34 -13 -61 -30 -73 -45
-78 -42 -78 39 0 38 3 77 6 85 3 9 51 42 106 73 107 60 125 83 107 130 -23 60
-67 67 -147 22 -76 -43 -82 -35 -82 106 l0 113 -31 26 c-17 14 -39 26 -49 26
-10 0 -32 -12 -49 -26z"/>
</g>
</svg>
